<svg xmlns="http://www.w3.org/2000/svg" xmlns:xlink="http://www.w3.org/1999/xlink" width="40" zoomAndPan="magnify" viewBox="0 0 30 30.000001" height="40" preserveAspectRatio="xMidYMid meet" version="1.0"><defs><g/><clipPath id="57a4205dac"><path d="M 0.484375 2.242188 L 29.515625 2.242188 L 29.515625 26.921875 L 0.484375 26.921875 Z M 0.484375 2.242188 " clip-rule="nonzero"/></clipPath></defs><g clip-path="url(#57a4205dac)"><path fill="#000000" d="M 25.667969 2.320312 L 4.28125 2.320312 C 2.183594 2.320312 0.484375 4.03125 0.484375 6.191406 L 0.484375 18.601562 C 0.484375 20.710938 2.183594 22.421875 4.28125 22.421875 L 4.429688 22.421875 C 5.230469 22.421875 5.929688 22.824219 6.378906 23.476562 L 7.980469 25.988281 C 8.328125 26.492188 8.878906 26.84375 9.527344 26.84375 C 10.179688 26.84375 10.726562 26.539062 11.078125 25.988281 L 12.277344 24.078125 C 12.925781 23.023438 14.074219 22.421875 15.273438 22.421875 L 25.71875 22.421875 C 27.816406 22.421875 29.515625 20.710938 29.515625 18.601562 L 29.515625 6.191406 C 29.464844 4.03125 27.765625 2.320312 25.667969 2.320312 Z M 25.667969 2.320312 " fill-opacity="1" fill-rule="nonzero"/></g><g fill="#ffffff" fill-opacity="1"><g transform="translate(2.570564, 16.274193)"><g><path d="M 2.71875 -3.640625 L 2.71875 -1.375 L 6.671875 -1.375 L 6.671875 0 L 1.078125 0 L 1.078125 -8.28125 L 6.578125 -8.28125 L 6.578125 -6.921875 L 2.71875 -6.921875 L 2.71875 -4.984375 L 6.09375 -4.984375 L 6.09375 -3.640625 Z M 2.71875 -3.640625 "/></g></g></g><g fill="#ffffff" fill-opacity="1"><g transform="translate(9.691255, 16.274193)"><g><path d="M 2.671875 0 L 1.078125 0 L 1.078125 -8.28125 L 2.953125 -8.28125 L 6.28125 -2.953125 L 6.421875 -2.96875 L 6.421875 -8.28125 L 8 -8.28125 L 8 0 L 6.328125 0 L 2.8125 -5.703125 L 2.671875 -5.6875 Z M 2.671875 0 "/></g></g></g><g fill="#ffffff" fill-opacity="1"><g transform="translate(18.771976, 16.274193)"><g><path d="M 4.03125 0.125 C 3.332031 0.125 2.726562 -0.03125 2.21875 -0.34375 C 1.71875 -0.664062 1.332031 -1.144531 1.0625 -1.78125 C 0.789062 -2.414062 0.65625 -3.203125 0.65625 -4.140625 C 0.65625 -5.085938 0.816406 -5.878906 1.140625 -6.515625 C 1.472656 -7.148438 1.929688 -7.625 2.515625 -7.9375 C 3.097656 -8.25 3.773438 -8.40625 4.546875 -8.40625 C 5.335938 -8.40625 6.015625 -8.253906 6.578125 -7.953125 C 7.140625 -7.660156 7.53125 -7.226562 7.75 -6.65625 L 6.5625 -5.921875 L 6.421875 -5.921875 C 6.242188 -6.296875 6 -6.566406 5.6875 -6.734375 C 5.382812 -6.910156 5.003906 -7 4.546875 -7 C 3.828125 -7 3.28125 -6.769531 2.90625 -6.3125 C 2.53125 -5.863281 2.34375 -5.140625 2.34375 -4.140625 C 2.34375 -3.140625 2.519531 -2.410156 2.875 -1.953125 C 3.226562 -1.503906 3.75 -1.28125 4.4375 -1.28125 C 5.03125 -1.28125 5.46875 -1.414062 5.75 -1.6875 C 6.039062 -1.957031 6.1875 -2.359375 6.1875 -2.890625 L 6.1875 -3.25 L 4.21875 -3.25 L 4.21875 -4.578125 L 7.8125 -4.578125 L 7.8125 0 L 6.25 0 L 6.25 -1.109375 L 6.125 -1.125 C 5.957031 -0.726562 5.695312 -0.421875 5.34375 -0.203125 C 5 0.015625 4.5625 0.125 4.03125 0.125 Z M 4.03125 0.125 "/></g></g></g></svg>