<svg xmlns="http://www.w3.org/2000/svg" xmlns:xlink="http://www.w3.org/1999/xlink" width="40" zoomAndPan="magnify" viewBox="0 0 30 30.000001" height="40" preserveAspectRatio="xMidYMid meet" version="1.0"><defs><g/><clipPath id="e471189b5a"><path d="M 0.484375 2.242188 L 29.515625 2.242188 L 29.515625 26.921875 L 0.484375 26.921875 Z M 0.484375 2.242188 " clip-rule="nonzero"/></clipPath></defs><g clip-path="url(#e471189b5a)"><path fill="#000000" d="M 25.667969 2.320312 L 4.28125 2.320312 C 2.183594 2.320312 0.484375 4.03125 0.484375 6.191406 L 0.484375 18.601562 C 0.484375 20.710938 2.183594 22.421875 4.28125 22.421875 L 4.429688 22.421875 C 5.230469 22.421875 5.929688 22.824219 6.378906 23.476562 L 7.980469 25.988281 C 8.328125 26.492188 8.878906 26.84375 9.527344 26.84375 C 10.179688 26.84375 10.726562 26.539062 11.078125 25.988281 L 12.277344 24.078125 C 12.925781 23.023438 14.074219 22.421875 15.273438 22.421875 L 25.71875 22.421875 C 27.816406 22.421875 29.515625 20.710938 29.515625 18.601562 L 29.515625 6.191406 C 29.464844 4.03125 27.765625 2.320312 25.667969 2.320312 Z M 25.667969 2.320312 " fill-opacity="1" fill-rule="nonzero"/></g><g fill="#ffffff" fill-opacity="1"><g transform="translate(2.026209, 15.258062)"><g><path d="M 2.4375 -2.0625 C 1.96875 -2.0625 1.539062 -2.179688 1.15625 -2.421875 C 0.78125 -2.660156 0.4375 -3.023438 0.125 -3.515625 L 0.859375 -4.015625 C 1.109375 -3.640625 1.347656 -3.359375 1.578125 -3.171875 C 1.816406 -2.992188 2.085938 -2.90625 2.390625 -2.90625 C 2.734375 -2.90625 3 -3.035156 3.1875 -3.296875 C 3.375 -3.566406 3.46875 -3.957031 3.46875 -4.46875 C 3.46875 -5.03125 3.359375 -5.453125 3.140625 -5.734375 C 2.929688 -6.015625 2.609375 -6.15625 2.171875 -6.15625 C 1.742188 -6.15625 1.328125 -6.050781 0.921875 -5.84375 L 0.625 -6.625 C 0.84375 -6.738281 1.097656 -6.828125 1.390625 -6.890625 C 1.679688 -6.960938 1.960938 -7 2.234375 -7 C 2.921875 -7 3.453125 -6.78125 3.828125 -6.34375 C 4.210938 -5.90625 4.40625 -5.269531 4.40625 -4.4375 C 4.40625 -3.65625 4.238281 -3.0625 3.90625 -2.65625 C 3.570312 -2.257812 3.082031 -2.0625 2.4375 -2.0625 Z M 5.5625 -7 L 6.484375 -6.875 L 6.484375 0.5 L 5.5625 0.5 Z M 5.5625 -7 "/></g></g></g><g fill="#ffffff" fill-opacity="1"><g transform="translate(9.611416, 15.258062)"><g><path d="M -2.9375 0.265625 C -2.53125 0.0859375 -2.097656 0 -1.640625 0 C -1.066406 0 -0.613281 0.132812 -0.28125 0.40625 C 0.0390625 0.6875 0.203125 1.070312 0.203125 1.5625 C 0.203125 2.03125 0.0195312 2.40625 -0.34375 2.6875 C -0.71875 2.96875 -1.226562 3.109375 -1.875 3.109375 C -2.5625 3.109375 -3.179688 2.945312 -3.734375 2.625 C -4.296875 2.3125 -4.835938 1.820312 -5.359375 1.15625 L -4.625 0.65625 C -4.164062 1.25 -3.726562 1.664062 -3.3125 1.90625 C -2.90625 2.15625 -2.425781 2.28125 -1.875 2.28125 C -1.0625 2.28125 -0.65625 2.015625 -0.65625 1.484375 C -0.65625 1.265625 -0.738281 1.09375 -0.90625 0.96875 C -1.070312 0.851562 -1.300781 0.796875 -1.59375 0.796875 C -1.957031 0.796875 -2.304688 0.878906 -2.640625 1.046875 Z M -2.03125 0 Z M -5.25 1.453125 Z M -5.25 1.453125 "/></g></g></g><g fill="#ffffff" fill-opacity="1"><g transform="translate(9.611416, 15.258062)"><g><path d="M 7.03125 -5.28125 C 7.738281 -5.789062 8.640625 -6.363281 9.734375 -7 L 10.203125 -6.234375 C 9.148438 -5.628906 8.285156 -5.09375 7.609375 -4.625 C 7.953125 -4.1875 8.207031 -3.742188 8.375 -3.296875 C 8.539062 -2.859375 8.625 -2.414062 8.625 -1.96875 C 8.625 -1.3125 8.441406 -0.800781 8.078125 -0.4375 C 7.722656 -0.0703125 7.234375 0.109375 6.609375 0.109375 C 5.960938 0.109375 5.457031 -0.0703125 5.09375 -0.4375 C 4.738281 -0.800781 4.5625 -1.273438 4.5625 -1.859375 C 4.5625 -2.398438 4.703125 -2.894531 4.984375 -3.34375 C 5.265625 -3.800781 5.71875 -4.273438 6.34375 -4.765625 C 6.007812 -5.097656 5.65625 -5.367188 5.28125 -5.578125 C 4.914062 -5.796875 4.519531 -5.953125 4.09375 -6.046875 C 4.289062 -5.691406 4.390625 -5.296875 4.390625 -4.859375 C 4.390625 -4.523438 4.304688 -4.210938 4.140625 -3.921875 C 3.972656 -3.640625 3.734375 -3.414062 3.421875 -3.25 C 3.117188 -3.09375 2.757812 -3.015625 2.34375 -3.015625 C 1.75 -3.015625 1.269531 -3.191406 0.90625 -3.546875 C 0.550781 -3.898438 0.375 -4.363281 0.375 -4.9375 C 0.375 -5.53125 0.609375 -6.019531 1.078125 -6.40625 C 1.546875 -6.800781 2.175781 -7 2.96875 -7 C 3.757812 -7 4.488281 -6.859375 5.15625 -6.578125 C 5.820312 -6.296875 6.445312 -5.863281 7.03125 -5.28125 Z M 3.09375 -6.171875 C 3.0625 -6.171875 3.023438 -6.175781 2.984375 -6.1875 L 2.875 -6.1875 C 2.375 -6.1875 1.988281 -6.070312 1.71875 -5.84375 C 1.445312 -5.613281 1.3125 -5.304688 1.3125 -4.921875 C 1.3125 -4.585938 1.40625 -4.328125 1.59375 -4.140625 C 1.78125 -3.960938 2.03125 -3.875 2.34375 -3.875 C 2.695312 -3.875 2.972656 -3.96875 3.171875 -4.15625 C 3.367188 -4.34375 3.46875 -4.59375 3.46875 -4.90625 C 3.46875 -5.394531 3.34375 -5.816406 3.09375 -6.171875 Z M 6.90625 -4.109375 C 6.46875 -3.785156 6.125 -3.441406 5.875 -3.078125 C 5.632812 -2.722656 5.515625 -2.316406 5.515625 -1.859375 C 5.515625 -1.484375 5.609375 -1.195312 5.796875 -1 C 5.984375 -0.8125 6.25 -0.71875 6.59375 -0.71875 C 6.945312 -0.71875 7.210938 -0.820312 7.390625 -1.03125 C 7.578125 -1.25 7.671875 -1.5625 7.671875 -1.96875 C 7.671875 -2.351562 7.609375 -2.722656 7.484375 -3.078125 C 7.359375 -3.441406 7.164062 -3.785156 6.90625 -4.109375 Z M 6.703125 0 Z M 8 -7 Z M 7.1875 -7 Z M 6.015625 0 Z M 9.828125 -6.171875 Z M 9.828125 -6.171875 "/></g></g></g><g fill="#ffffff" fill-opacity="1"><g transform="translate(19.728794, 15.258062)"><g><path d="M 4.78125 0 C 4.195312 0 3.664062 -0.160156 3.1875 -0.484375 C 2.71875 -0.816406 2.226562 -1.398438 1.71875 -2.234375 C 1.601562 -2.234375 1.5 -2.234375 1.40625 -2.234375 C 1.050781 -2.234375 0.785156 -2.285156 0.609375 -2.390625 C 0.429688 -2.503906 0.34375 -2.6875 0.34375 -2.9375 C 0.34375 -3.113281 0.40625 -3.253906 0.53125 -3.359375 C 0.664062 -3.460938 0.835938 -3.515625 1.046875 -3.515625 C 1.234375 -3.515625 1.398438 -3.484375 1.546875 -3.421875 C 1.691406 -3.367188 1.835938 -3.289062 1.984375 -3.1875 C 2.503906 -3.300781 2.910156 -3.5 3.203125 -3.78125 C 3.492188 -4.070312 3.640625 -4.414062 3.640625 -4.8125 C 3.640625 -5.238281 3.507812 -5.566406 3.25 -5.796875 C 3 -6.023438 2.644531 -6.140625 2.1875 -6.140625 C 1.914062 -6.140625 1.65625 -6.113281 1.40625 -6.0625 C 1.164062 -6.007812 0.910156 -5.914062 0.640625 -5.78125 L 0.34375 -6.59375 C 0.976562 -6.863281 1.601562 -7 2.21875 -7 C 2.957031 -7 3.535156 -6.804688 3.953125 -6.421875 C 4.378906 -6.035156 4.59375 -5.492188 4.59375 -4.796875 C 4.59375 -4.253906 4.414062 -3.769531 4.0625 -3.34375 C 3.707031 -2.925781 3.222656 -2.617188 2.609375 -2.421875 C 2.898438 -1.992188 3.15625 -1.671875 3.375 -1.453125 C 3.601562 -1.242188 3.828125 -1.09375 4.046875 -1 C 4.265625 -0.914062 4.523438 -0.875 4.828125 -0.875 L 5.0625 -0.875 L 4.953125 0 Z M 2.953125 0 Z M 2.953125 -7 Z M 2.578125 0 Z M 1.984375 -7 Z M 4.234375 -3.0625 Z M 4.234375 -3.0625 "/></g></g></g><g fill="#ffffff" fill-opacity="1"><g transform="translate(24.895115, 15.258062)"><g><path d="M 1.046875 -7 L 1.984375 -6.875 L 1.984375 -1.765625 C 1.984375 -1.523438 2 -1.351562 2.03125 -1.25 C 2.0625 -1.144531 2.109375 -1.0625 2.171875 -1 C 2.242188 -0.9375 2.34375 -0.894531 2.46875 -0.875 C 2.59375 -0.851562 2.765625 -0.84375 2.984375 -0.84375 L 2.890625 0 L 2.765625 0 C 2.335938 0 1.992188 -0.0625 1.734375 -0.1875 C 1.472656 -0.320312 1.289062 -0.503906 1.1875 -0.734375 C 1.09375 -0.972656 1.046875 -1.300781 1.046875 -1.71875 Z M 1.046875 -7 "/></g></g></g></svg>