<svg xmlns="http://www.w3.org/2000/svg" xmlns:xlink="http://www.w3.org/1999/xlink" width="40" zoomAndPan="magnify" viewBox="0 0 30 30.000001" height="40" preserveAspectRatio="xMidYMid meet" version="1.0"><defs><g/><clipPath id="505cca57e5"><path d="M 0.484375 2.242188 L 29.515625 2.242188 L 29.515625 26.921875 L 0.484375 26.921875 Z M 0.484375 2.242188 " clip-rule="nonzero"/></clipPath></defs><g clip-path="url(#505cca57e5)"><path fill="#000000" d="M 25.667969 2.320312 L 4.28125 2.320312 C 2.183594 2.320312 0.484375 4.03125 0.484375 6.191406 L 0.484375 18.601562 C 0.484375 20.710938 2.183594 22.421875 4.28125 22.421875 L 4.429688 22.421875 C 5.230469 22.421875 5.929688 22.824219 6.378906 23.476562 L 7.980469 25.988281 C 8.328125 26.492188 8.878906 26.84375 9.527344 26.84375 C 10.179688 26.84375 10.726562 26.539062 11.078125 25.988281 L 12.277344 24.078125 C 12.925781 23.023438 14.074219 22.421875 15.273438 22.421875 L 25.71875 22.421875 C 27.816406 22.421875 29.515625 20.710938 29.515625 18.601562 L 29.515625 6.191406 C 29.464844 4.03125 27.765625 2.320312 25.667969 2.320312 Z M 25.667969 2.320312 " fill-opacity="1" fill-rule="nonzero"/></g><g fill="#ffffff" fill-opacity="1"><g transform="translate(3.474307, 17.427779)"><g><path d="M 1.265625 -7.8125 L 0 -7.8125 L 0 -8.828125 L 1.140625 -8.828125 C 1.023438 -9.035156 0.929688 -9.253906 0.859375 -9.484375 C 0.785156 -9.722656 0.75 -9.984375 0.75 -10.265625 C 0.75 -11.003906 1.019531 -11.597656 1.5625 -12.046875 C 2.113281 -12.492188 2.851562 -12.71875 3.78125 -12.71875 C 5.113281 -12.71875 6.289062 -12.351562 7.3125 -11.625 C 8.34375 -10.90625 9.234375 -9.9375 9.984375 -8.71875 L 8.796875 -8.71875 C 7.347656 -10.695312 5.753906 -11.6875 4.015625 -11.6875 C 3.347656 -11.6875 2.828125 -11.546875 2.453125 -11.265625 C 2.085938 -10.992188 1.90625 -10.613281 1.90625 -10.125 C 1.90625 -9.84375 1.945312 -9.59375 2.03125 -9.375 C 2.125 -9.164062 2.226562 -8.984375 2.34375 -8.828125 L 3.875 -8.828125 L 3.875 -7.8125 L 2.40625 -7.8125 L 2.40625 0 L 1.265625 0 Z M 9.09375 -11.578125 C 9.09375 -11.804688 9.171875 -12 9.328125 -12.15625 C 9.484375 -12.320312 9.664062 -12.40625 9.875 -12.40625 C 10.082031 -12.40625 10.265625 -12.320312 10.421875 -12.15625 C 10.578125 -12 10.65625 -11.804688 10.65625 -11.578125 C 10.65625 -11.347656 10.578125 -11.148438 10.421875 -10.984375 C 10.265625 -10.828125 10.082031 -10.75 9.875 -10.75 C 9.664062 -10.75 9.484375 -10.828125 9.328125 -10.984375 C 9.171875 -11.148438 9.09375 -11.347656 9.09375 -11.578125 Z M 9.09375 -11.578125 "/></g></g></g><g fill="#ffffff" fill-opacity="1"><g transform="translate(7.147052, 17.427779)"><g><path d="M 4.546875 -0.984375 C 4.890625 -1.085938 5.171875 -1.222656 5.390625 -1.390625 C 5.609375 -1.554688 5.71875 -1.789062 5.71875 -2.09375 C 5.71875 -2.457031 5.578125 -2.738281 5.296875 -2.9375 C 5.023438 -3.144531 4.582031 -3.25 3.96875 -3.25 C 3.320312 -3.25 2.820312 -3.113281 2.46875 -2.84375 C 2.125 -2.570312 1.953125 -2.210938 1.953125 -1.765625 C 1.953125 -1.460938 2.003906 -1.175781 2.109375 -0.90625 C 2.222656 -0.632812 2.445312 -0.332031 2.78125 0 C 3.125 0.34375 3.625 0.765625 4.28125 1.265625 L 3.515625 2.015625 C 2.648438 1.335938 1.984375 0.707031 1.515625 0.125 C 1.054688 -0.457031 0.828125 -1.113281 0.828125 -1.84375 C 0.828125 -2.207031 0.898438 -2.523438 1.046875 -2.796875 C 1.191406 -3.078125 1.382812 -3.316406 1.625 -3.515625 C 1.445312 -3.691406 1.296875 -3.898438 1.171875 -4.140625 C 1.046875 -4.390625 0.984375 -4.675781 0.984375 -5 C 0.984375 -5.257812 1.03125 -5.484375 1.125 -5.671875 C 1.21875 -5.859375 1.34375 -6.015625 1.5 -6.140625 C 1.707031 -6.304688 1.953125 -6.421875 2.234375 -6.484375 C 2.523438 -6.554688 2.863281 -6.59375 3.25 -6.59375 L 5.125 -6.59375 L 5.125 -7.8125 L 0 -7.8125 L 0 -8.828125 L 7.75 -8.828125 L 7.75 -7.8125 L 6.265625 -7.8125 L 6.265625 -5.59375 L 3.265625 -5.59375 C 2.972656 -5.59375 2.765625 -5.578125 2.640625 -5.546875 C 2.515625 -5.515625 2.410156 -5.46875 2.328125 -5.40625 C 2.179688 -5.289062 2.109375 -5.128906 2.109375 -4.921875 C 2.109375 -4.734375 2.15625 -4.566406 2.25 -4.421875 C 2.34375 -4.273438 2.457031 -4.144531 2.59375 -4.03125 C 3.039062 -4.175781 3.519531 -4.25 4.03125 -4.25 C 4.675781 -4.25 5.207031 -4.148438 5.625 -3.953125 C 6.039062 -3.753906 6.34375 -3.492188 6.53125 -3.171875 C 6.726562 -2.859375 6.828125 -2.523438 6.828125 -2.171875 C 6.828125 -1.609375 6.660156 -1.148438 6.328125 -0.796875 C 6.003906 -0.441406 5.539062 -0.1875 4.9375 -0.03125 Z M 4.546875 -0.984375 "/></g></g></g><g fill="#ffffff" fill-opacity="1"><g transform="translate(14.676872, 17.427779)"><g/></g></g><g fill="#ffffff" fill-opacity="1"><g transform="translate(14.676872, 17.427779)"><g><path d="M 5.859375 0.828125 C 5.660156 0.503906 5.46875 0.175781 5.28125 -0.15625 C 5.101562 -0.488281 4.960938 -0.78125 4.859375 -1.03125 C 4.742188 -1.007812 4.617188 -0.992188 4.484375 -0.984375 C 4.347656 -0.972656 4.210938 -0.96875 4.078125 -0.96875 C 3.671875 -0.96875 3.265625 -1.015625 2.859375 -1.109375 C 2.460938 -1.210938 2.097656 -1.375 1.765625 -1.59375 C 1.429688 -1.8125 1.160156 -2.109375 0.953125 -2.484375 C 0.753906 -2.859375 0.65625 -3.316406 0.65625 -3.859375 C 0.65625 -4.273438 0.722656 -4.628906 0.859375 -4.921875 C 1.003906 -5.222656 1.203125 -5.476562 1.453125 -5.6875 C 1.765625 -5.957031 2.144531 -6.15625 2.59375 -6.28125 C 3.050781 -6.40625 3.554688 -6.46875 4.109375 -6.46875 L 4.1875 -6.46875 L 4.1875 -7.8125 L 0 -7.8125 L 0 -8.828125 L 7.578125 -8.828125 L 7.578125 -7.8125 L 5.328125 -7.8125 L 5.328125 -5.46875 L 4.640625 -5.46875 C 4.078125 -5.46875 3.628906 -5.429688 3.296875 -5.359375 C 2.972656 -5.296875 2.691406 -5.1875 2.453125 -5.03125 C 2.234375 -4.894531 2.066406 -4.71875 1.953125 -4.5 C 1.835938 -4.28125 1.78125 -4.019531 1.78125 -3.71875 C 1.78125 -3.21875 1.96875 -2.800781 2.34375 -2.46875 C 2.71875 -2.144531 3.296875 -1.984375 4.078125 -1.984375 C 4.128906 -1.984375 4.179688 -1.984375 4.234375 -1.984375 C 4.296875 -1.984375 4.359375 -1.988281 4.421875 -2 C 4.367188 -2.1875 4.34375 -2.351562 4.34375 -2.5 C 4.34375 -2.820312 4.441406 -3.050781 4.640625 -3.1875 C 4.835938 -3.332031 5.054688 -3.40625 5.296875 -3.40625 C 5.703125 -3.40625 6.007812 -3.285156 6.21875 -3.046875 C 6.4375 -2.816406 6.546875 -2.566406 6.546875 -2.296875 C 6.546875 -1.992188 6.472656 -1.757812 6.328125 -1.59375 C 6.191406 -1.425781 6.019531 -1.300781 5.8125 -1.21875 C 5.925781 -0.988281 6.0625 -0.753906 6.21875 -0.515625 C 6.375 -0.273438 6.570312 0.0078125 6.8125 0.34375 Z M 5.859375 0.828125 "/></g></g></g><g fill="#ffffff" fill-opacity="1"><g transform="translate(22.050708, 17.427779)"><g><path d="M 1.265625 -7.8125 L 0 -7.8125 L 0 -8.828125 L 1.21875 -8.828125 C 0.863281 -9.816406 0.484375 -10.539062 0.078125 -11 C -0.316406 -11.46875 -0.800781 -11.703125 -1.375 -11.703125 C -1.820312 -11.703125 -2.15625 -11.578125 -2.375 -11.328125 C -2.601562 -11.085938 -2.71875 -10.757812 -2.71875 -10.34375 C -2.71875 -10.03125 -2.671875 -9.742188 -2.578125 -9.484375 C -2.484375 -9.222656 -2.375 -8.96875 -2.25 -8.71875 L -3.390625 -8.71875 C -3.710938 -9.332031 -3.875 -9.941406 -3.875 -10.546875 C -3.875 -11.171875 -3.660156 -11.6875 -3.234375 -12.09375 C -2.816406 -12.507812 -2.226562 -12.71875 -1.46875 -12.71875 C -0.539062 -12.71875 0.207031 -12.40625 0.78125 -11.78125 C 1.351562 -11.15625 1.867188 -10.171875 2.328125 -8.828125 L 3.875 -8.828125 L 3.875 -7.8125 L 2.40625 -7.8125 L 2.40625 0 L 1.265625 0 Z M 1.265625 -7.8125 "/></g></g></g></svg>