<svg xmlns="http://www.w3.org/2000/svg" xmlns:xlink="http://www.w3.org/1999/xlink" width="40" zoomAndPan="magnify" viewBox="0 0 30 30.000001" height="40" preserveAspectRatio="xMidYMid meet" version="1.0"><defs><g/><clipPath id="9fb8013608"><path d="M 0.484375 2.242188 L 29.515625 2.242188 L 29.515625 26.921875 L 0.484375 26.921875 Z M 0.484375 2.242188 " clip-rule="nonzero"/></clipPath></defs><g clip-path="url(#9fb8013608)"><path fill="#000000" d="M 25.667969 2.320312 L 4.28125 2.320312 C 2.183594 2.320312 0.484375 4.03125 0.484375 6.191406 L 0.484375 18.601562 C 0.484375 20.710938 2.183594 22.421875 4.28125 22.421875 L 4.429688 22.421875 C 5.230469 22.421875 5.929688 22.824219 6.378906 23.476562 L 7.980469 25.988281 C 8.328125 26.492188 8.878906 26.84375 9.527344 26.84375 C 10.179688 26.84375 10.726562 26.539062 11.078125 25.988281 L 12.277344 24.078125 C 12.925781 23.023438 14.074219 22.421875 15.273438 22.421875 L 25.71875 22.421875 C 27.816406 22.421875 29.515625 20.710938 29.515625 18.601562 L 29.515625 6.191406 C 29.464844 4.03125 27.765625 2.320312 25.667969 2.320312 Z M 25.667969 2.320312 " fill-opacity="1" fill-rule="nonzero"/></g><g fill="#ffffff" fill-opacity="1"><g transform="translate(2.960413, 16.006493)"><g><path d="M 3.234375 0.15625 C 2.722656 0.15625 2.269531 0.078125 1.875 -0.078125 C 1.488281 -0.242188 1.179688 -0.476562 0.953125 -0.78125 C 0.722656 -1.082031 0.609375 -1.445312 0.609375 -1.875 C 0.609375 -2.3125 0.71875 -2.6875 0.9375 -3 C 1.15625 -3.320312 1.503906 -3.570312 1.984375 -3.75 L 1.984375 -6.859375 L 8.453125 -6.859375 L 8.453125 -5.96875 L 6.140625 -5.96875 L 6.140625 -4.0625 C 6.816406 -4.039062 7.414062 -3.9375 7.9375 -3.75 C 8.457031 -3.570312 8.863281 -3.273438 9.15625 -2.859375 C 9.457031 -2.441406 9.609375 -1.894531 9.609375 -1.21875 C 9.609375 -0.664062 9.503906 -0.203125 9.296875 0.171875 C 9.097656 0.554688 8.804688 0.882812 8.421875 1.15625 C 8.023438 1.445312 7.535156 1.648438 6.953125 1.765625 C 6.378906 1.878906 5.648438 1.9375 4.765625 1.9375 L 3.359375 1.9375 C 3.015625 1.9375 2.75 1.957031 2.5625 2 C 2.375 2.050781 2.207031 2.125 2.0625 2.21875 C 1.925781 2.300781 1.820312 2.425781 1.75 2.59375 C 1.675781 2.757812 1.640625 2.976562 1.640625 3.25 C 1.640625 3.5 1.65625 3.722656 1.6875 3.921875 L 0.671875 3.96875 C 0.640625 3.820312 0.613281 3.660156 0.59375 3.484375 C 0.582031 3.304688 0.578125 3.144531 0.578125 3 C 0.578125 2.644531 0.640625 2.335938 0.765625 2.078125 C 0.898438 1.828125 1.070312 1.625 1.28125 1.46875 C 1.5 1.3125 1.738281 1.203125 2 1.140625 C 2.269531 1.078125 2.613281 1.046875 3.03125 1.046875 L 4.375 1.046875 C 5.113281 1.046875 5.71875 1.015625 6.1875 0.953125 C 6.65625 0.890625 7.035156 0.789062 7.328125 0.65625 C 7.617188 0.53125 7.859375 0.363281 8.046875 0.15625 C 8.378906 -0.207031 8.546875 -0.691406 8.546875 -1.296875 C 8.546875 -1.785156 8.429688 -2.160156 8.203125 -2.421875 C 7.972656 -2.691406 7.671875 -2.878906 7.296875 -2.984375 C 6.929688 -3.097656 6.546875 -3.164062 6.140625 -3.1875 L 6.140625 -2.796875 C 6.140625 -2.234375 6.09375 -1.796875 6 -1.484375 C 5.90625 -1.171875 5.769531 -0.910156 5.59375 -0.703125 C 5.332031 -0.390625 5.003906 -0.164062 4.609375 -0.03125 C 4.210938 0.09375 3.753906 0.15625 3.234375 0.15625 Z M 2.953125 -5.96875 L 2.953125 -3.984375 C 3.304688 -4.035156 3.691406 -4.0625 4.109375 -4.0625 L 5.09375 -4.0625 L 5.09375 -5.96875 Z M 1.671875 -1.890625 C 1.671875 -1.503906 1.828125 -1.21875 2.140625 -1.03125 C 2.453125 -0.84375 2.847656 -0.75 3.328125 -0.75 C 3.679688 -0.75 3.988281 -0.800781 4.25 -0.90625 C 4.519531 -1.019531 4.726562 -1.210938 4.875 -1.484375 C 5.019531 -1.765625 5.09375 -2.148438 5.09375 -2.640625 L 5.09375 -3.1875 L 4.015625 -3.1875 C 3.597656 -3.1875 3.242188 -3.160156 2.953125 -3.109375 C 2.660156 -3.066406 2.410156 -2.988281 2.203125 -2.875 C 1.847656 -2.664062 1.671875 -2.335938 1.671875 -1.890625 Z M 1.671875 -1.890625 "/></g></g></g><g fill="#ffffff" fill-opacity="1"><g transform="translate(13.172532, 16.006493)"><g><path d="M 7.171875 -7 C 7.785156 -7 8.289062 -6.835938 8.6875 -6.515625 C 9.09375 -6.203125 9.390625 -5.765625 9.578125 -5.203125 C 9.765625 -4.640625 9.859375 -3.988281 9.859375 -3.25 C 9.859375 -2.664062 9.796875 -2.164062 9.671875 -1.75 C 9.546875 -1.34375 9.347656 -1.007812 9.078125 -0.75 C 8.796875 -0.46875 8.445312 -0.269531 8.03125 -0.15625 C 7.613281 -0.0507812 7.050781 0 6.34375 0 L 1.09375 0 L 1.09375 -6.859375 L 2.15625 -6.859375 L 2.15625 -0.890625 L 4.953125 -0.890625 L 4.953125 -4.390625 C 4.953125 -4.890625 4.992188 -5.289062 5.078125 -5.59375 C 5.171875 -5.90625 5.3125 -6.164062 5.5 -6.375 C 5.695312 -6.582031 5.925781 -6.738281 6.1875 -6.84375 C 6.445312 -6.945312 6.773438 -7 7.171875 -7 Z M 7.15625 -6.109375 C 7.007812 -6.109375 6.867188 -6.085938 6.734375 -6.046875 C 6.609375 -6.003906 6.5 -5.929688 6.40625 -5.828125 C 6.28125 -5.679688 6.179688 -5.5 6.109375 -5.28125 C 6.046875 -5.0625 6.015625 -4.695312 6.015625 -4.1875 L 6.015625 -0.890625 L 6.59375 -0.890625 C 7.144531 -0.890625 7.578125 -0.96875 7.890625 -1.125 C 8.210938 -1.28125 8.441406 -1.535156 8.578125 -1.890625 C 8.710938 -2.242188 8.78125 -2.710938 8.78125 -3.296875 C 8.78125 -3.816406 8.722656 -4.289062 8.609375 -4.71875 C 8.492188 -5.144531 8.316406 -5.484375 8.078125 -5.734375 C 7.835938 -5.984375 7.53125 -6.109375 7.15625 -6.109375 Z M 7.15625 -6.109375 "/></g></g></g><g fill="#ffffff" fill-opacity="1"><g transform="translate(23.793135, 16.006493)"><g><path d="M -0.984375 -10.4375 C -0.078125 -10.4375 0.65625 -10.144531 1.21875 -9.5625 C 1.40625 -9.375 1.566406 -9.132812 1.703125 -8.84375 C 1.847656 -8.5625 1.957031 -8.195312 2.03125 -7.75 C 2.113281 -7.300781 2.15625 -6.734375 2.15625 -6.046875 L 2.15625 0 L 1.09375 0 L 1.09375 -5.828125 C 1.09375 -6.410156 1.0625 -6.898438 1 -7.296875 C 0.945312 -7.691406 0.867188 -8.015625 0.765625 -8.265625 C 0.671875 -8.515625 0.554688 -8.722656 0.421875 -8.890625 C 0.242188 -9.097656 0.0351562 -9.25 -0.203125 -9.34375 C -0.441406 -9.445312 -0.707031 -9.5 -1 -9.5 C -1.539062 -9.5 -1.953125 -9.347656 -2.234375 -9.046875 C -2.515625 -8.742188 -2.65625 -8.359375 -2.65625 -7.890625 C -2.65625 -7.648438 -2.625 -7.394531 -2.5625 -7.125 C -2.5 -6.863281 -2.394531 -6.613281 -2.25 -6.375 L -3.375 -6.375 C -3.488281 -6.625 -3.570312 -6.867188 -3.625 -7.109375 C -3.6875 -7.347656 -3.71875 -7.601562 -3.71875 -7.875 C -3.71875 -8.46875 -3.585938 -8.953125 -3.328125 -9.328125 C -3.078125 -9.703125 -2.742188 -9.976562 -2.328125 -10.15625 C -1.910156 -10.34375 -1.460938 -10.4375 -0.984375 -10.4375 Z M -0.984375 -10.4375 "/></g></g></g></svg>